<?xml version="1.0" encoding="utf-8" standalone="no"?>
<!DOCTYPE svg PUBLIC "-//W3C//DTD SVG 1.1//EN"
  "http://www.w3.org/Graphics/SVG/1.1/DTD/svg11.dtd">
<!-- Created with matplotlib (http://matplotlib.org/) -->
<svg height="432pt" version="1.1" viewBox="0 0 576 432" width="576pt" xmlns="http://www.w3.org/2000/svg" xmlns:xlink="http://www.w3.org/1999/xlink">
 <defs>
  <style type="text/css">
*{stroke-linecap:butt;stroke-linejoin:round;}
  </style>
 </defs>
 <g id="figure_1">
  <g id="patch_1">
   <path d="
M0 432
L576 432
L576 0
L0 0
z
" style="fill:#ffffff;"/>
  </g>
  <g id="axes_1">
   <g id="patch_2">
    <path d="
M72 388.8
L518.4 388.8
L518.4 43.2
L72 43.2
z
" style="fill:#ffffff;"/>
   </g>
   <g id="line2d_1">
    <path clip-path="url(#p7ff5b81e1d)" d="
M72.031 213.56
L72.3462 213.56
L72.651 214.78
L72.961 214.78
L73.2762 213.56
L73.581 214.78
L75.1362 214.78
L75.4462 216
L78.851 216
L79.1558 214.78
L79.471 216
L79.7862 216
L80.091 214.78
L81.951 214.78
L82.261 216
L85.0613 216
L85.3662 217.22
L85.981 217.22
L86.2962 216
L86.601 217.22
L88.151 217.22
L88.461 216
L88.771 217.22
L89.701 217.22
L90.0058 218.44
L90.3158 217.22
L90.631 218.44
L90.941 218.44
L91.871 222.302
L92.181 222.302
L92.5013 223.725
L92.801 226.165
L93.111 224.945
L93.421 227.384
L93.7258 227.384
L94.041 228.604
L94.351 228.604
L94.6662 230.027
L95.281 230.027
L95.591 231.247
L96.831 231.247
L97.1358 232.467
L98.381 232.467
L98.691 233.89
L99.621 233.89
L99.9362 235.11
L103.026 235.11
L103.341 233.89
L104.266 233.89
L105.201 237.549
L106.131 237.549
L106.446 238.769
L106.751 237.549
L109.851 237.549
L110.161 236.329
L112.026 236.329
L112.336 235.11
L113.876 235.11
L114.191 233.89
L116.051 233.89
L116.366 232.467
L117.911 232.467
L118.221 231.247
L119.461 231.247
L119.771 230.027
L120.081 231.247
L121.011 231.247
L121.316 230.027
L121.631 231.247
L121.946 230.027
L125.356 230.027
L125.661 228.604
L128.446 228.604
L128.761 227.384
L132.791 227.384
L133.111 226.165
L133.411 227.384
L133.721 226.165
L134.031 226.165
L134.341 227.384
L135.581 227.384
L135.891 226.165
L136.206 227.384
L145.501 227.384
L145.816 228.604
L146.126 227.384
L149.531 227.384
L149.841 228.604
L150.151 228.604
L150.466 227.384
L152.321 227.384
L152.631 228.604
L152.941 227.384
L153.251 228.604
L153.566 227.384
L157.586 227.384
L157.896 228.604
L158.211 227.384
L158.521 228.604
L158.831 228.604
L159.141 227.384
L159.451 228.604
L159.766 227.384
L162.551 227.384
L162.861 228.604
L163.481 228.604
L163.791 227.384
L164.101 228.604
L164.411 227.384
L164.721 228.604
L165.346 228.604
L165.651 230.027
L165.966 230.027
L166.271 231.247
L166.576 231.247
L166.891 232.467
L167.516 232.467
L167.821 233.89
L168.131 233.89
L168.441 232.467
L168.751 233.89
L169.371 233.89
L169.681 235.11
L172.781 235.11
L173.091 236.329
L173.711 236.329
L174.021 235.11
L175.261 235.11
L175.571 233.89
L176.191 233.89
L176.506 235.11
L176.811 235.11
L177.126 233.89
L178.051 233.89
L178.361 232.467
L178.676 233.89
L179.286 233.89
L179.601 232.467
L179.911 233.89
L180.221 233.89
L180.536 232.467
L183.636 232.467
L183.946 231.247
L184.251 232.467
L184.561 231.247
L191.696 231.247
L192.001 232.467
L194.791 232.467
L195.101 233.89
L196.341 233.89
L196.651 235.11
L199.441 235.11
L199.751 236.329
L203.161 236.329
L203.471 235.11
L203.781 236.329
L204.091 235.11
L204.401 236.329
L205.331 236.329
L205.641 237.549
L207.196 237.549
L207.501 238.769
L210.291 238.769
L210.601 237.549
L210.916 237.549
L211.221 238.769
L211.531 237.549
L215.561 237.549
L215.876 236.329
L216.181 237.549
L216.491 237.549
L216.801 236.329
L219.286 236.329
L219.591 237.549
L220.211 237.549
L220.521 238.769
L220.831 238.769
L221.141 240.192
L221.761 240.192
L222.071 238.769
L222.381 240.192
L223.316 240.192
L223.621 238.769
L224.866 238.769
L225.171 237.549
L226.106 237.549
L226.411 236.329
L228.586 236.329
L228.891 235.11
L230.441 235.11
L230.756 233.89
L231.061 235.11
L231.996 235.11
L232.306 233.89
L232.616 235.11
L232.921 235.11
L233.236 233.89
L233.541 233.89
L234.781 238.769
L235.091 238.769
L235.406 237.549
L235.711 238.769
L236.331 238.769
L236.641 237.549
L237.266 237.549
L237.571 236.329
L238.191 236.329
L238.506 235.11
L238.811 235.11
L239.121 233.89
L239.741 233.89
L240.051 232.467
L240.361 232.467
L240.671 231.247
L240.981 231.247
L241.606 228.604
L241.911 228.604
L242.221 227.384
L242.531 227.384
L242.841 226.165
L243.151 227.384
L243.461 226.165
L243.771 226.165
L244.081 227.384
L245.631 227.384
L245.941 226.165
L246.251 226.165
L246.571 224.945
L247.181 224.945
L247.491 223.725
L247.801 224.945
L248.116 223.725
L248.736 223.725
L249.041 222.302
L249.351 222.302
L249.661 221.082
L251.521 221.082
L252.146 218.44
L252.456 218.44
L253.076 216
L253.386 216
L254.001 213.56
L254.311 213.56
L254.626 210.918
L254.936 210.918
L255.861 207.055
L256.481 207.055
L256.796 204.616
L257.411 201.973
L257.721 203.396
L258.036 201.973
L258.346 203.396
L258.651 201.973
L258.961 201.973
L259.271 203.396
L259.581 201.973
L259.891 203.396
L260.201 203.396
L260.516 201.973
L261.441 205.835
L261.751 205.835
L262.371 208.275
L262.681 208.275
L262.996 207.055
L263.306 207.055
L263.611 205.835
L263.921 205.835
L264.231 207.055
L264.851 207.055
L265.161 208.275
L265.481 205.835
L266.716 205.835
L267.331 203.396
L267.641 204.616
L267.956 203.396
L268.266 203.396
L268.571 201.973
L268.881 203.396
L269.196 205.835
L269.501 205.835
L269.811 204.616
L270.126 205.835
L270.431 205.835
L270.741 204.616
L271.051 204.616
L271.361 203.396
L271.671 203.396
L271.981 204.616
L272.601 201.973
L272.916 203.396
L273.226 201.973
L273.846 201.973
L274.156 203.396
L275.391 203.396
L275.701 201.973
L276.011 201.973
L276.321 203.396
L277.256 203.396
L277.561 200.753
L277.871 201.973
L278.181 201.973
L278.496 203.396
L279.116 200.753
L279.741 200.753
L280.041 198.11
L280.351 199.533
L282.211 199.533
L282.526 198.11
L283.141 198.11
L283.451 196.89
L284.076 199.533
L284.386 198.11
L285.311 198.11
L285.626 196.89
L285.936 198.11
L286.241 195.671
L289.341 195.671
L289.656 196.89
L290.891 191.808
L291.201 193.231
L292.136 193.231
L292.441 195.671
L293.061 195.671
L293.376 194.451
L293.686 195.671
L294.611 195.671
L294.926 191.808
L295.236 194.451
L296.161 194.451
L296.781 191.808
L298.336 191.808
L298.641 193.231
L299.261 193.231
L299.576 191.808
L300.196 191.808
L300.501 193.231
L300.811 191.808
L301.746 191.808
L302.056 190.588
L302.366 190.588
L302.671 189.368
L303.296 189.368
L303.606 190.588
L304.536 190.588
L304.841 189.368
L305.151 189.368
L305.461 190.588
L306.396 190.588
L306.706 189.368
L307.011 189.368
L307.631 186.726
L307.941 187.945
L309.491 187.945
L309.801 186.726
L311.351 186.726
L311.971 184.286
L312.281 186.726
L312.591 186.726
L313.211 189.368
L313.521 189.368
L313.831 190.588
L314.456 190.588
L314.761 193.231
L315.071 193.231
L315.381 194.451
L315.696 193.231
L316.001 193.231
L316.621 190.588
L316.936 190.588
L317.246 187.945
L317.866 190.588
L318.176 190.588
L318.796 187.945
L321.276 187.945
L321.586 190.588
L322.206 190.588
L322.821 193.231
L323.441 193.231
L323.756 194.451
L324.066 193.231
L324.376 194.451
L324.681 194.451
L324.991 196.89
L325.311 196.89
L325.611 198.11
L326.236 198.11
L326.551 199.533
L327.161 196.89
L327.481 198.11
L327.786 196.89
L328.096 199.533
L328.406 195.671
L328.716 195.671
L329.021 196.89
L329.336 195.671
L330.261 195.671
L330.881 193.231
L331.196 193.231
L331.501 194.451
L331.811 194.451
L332.126 191.808
L333.051 187.945
L333.366 187.945
L333.981 185.506
L334.606 185.506
L335.221 183.066
L335.531 183.066
L335.846 181.643
L336.781 181.643
L337.396 179.204
L337.701 180.424
L338.011 179.204
L338.326 180.424
L339.561 180.424
L340.181 183.066
L340.496 183.066
L340.801 184.286
L341.421 184.286
L341.736 185.506
L342.976 185.506
L343.591 187.945
L343.901 187.945
L344.211 189.368
L344.521 189.368
L345.451 193.231
L345.761 193.231
L346.691 196.89
L347.316 196.89
L347.621 198.11
L347.931 198.11
L348.241 199.533
L349.176 199.533
L349.481 200.753
L349.791 199.533
L350.101 200.753
L350.721 200.753
L351.031 203.396
L351.341 204.616
L354.446 204.616
L354.751 205.835
L355.061 205.835
L355.371 207.055
L355.681 205.835
L356.301 208.275
L356.616 208.275
L356.921 207.055
L357.231 208.275
L357.546 207.055
L357.851 208.275
L358.161 208.275
L358.471 209.698
L359.411 209.698
L359.711 210.918
L360.021 210.918
L360.331 212.137
L360.646 212.137
L360.956 213.56
L363.121 213.56
L363.431 214.78
L364.056 214.78
L364.366 216
L364.676 216
L364.981 214.78
L365.291 214.78
L365.601 216
L365.911 214.78
L366.226 216
L367.461 216
L367.771 217.22
L368.701 217.22
L369.011 218.44
L369.321 218.44
L369.631 219.863
L369.941 219.863
L370.251 218.44
L370.566 221.082
L370.871 221.082
L371.181 222.302
L371.491 224.945
L371.801 223.725
L372.426 226.165
L372.731 226.165
L373.666 230.027
L373.971 230.027
L374.591 232.467
L374.906 232.467
L375.211 233.89
L375.521 233.89
L375.831 235.11
L376.141 235.11
L377.386 240.192
L378.001 240.192
L378.311 241.412
L378.626 241.412
L379.241 244.055
L379.556 244.055
L379.861 245.274
L380.171 245.274
L380.486 246.494
L381.101 246.494
L381.411 247.714
L381.721 247.714
L382.031 248.934
L383.586 248.934
L383.896 250.357
L384.201 248.934
L385.131 248.934
L385.441 250.357
L385.751 250.357
L386.061 251.576
L386.376 251.576
L386.996 254.219
L387.301 254.219
L387.611 255.439
L388.236 255.439
L388.546 256.659
L389.476 256.659
L389.781 257.879
L390.401 257.879
L390.711 259.098
L391.026 259.098
L391.331 257.879
L392.261 257.879
L392.576 259.098
L392.881 259.098
L393.501 261.741
L393.811 261.741
L394.121 260.521
L394.431 260.521
L394.741 259.098
L395.051 256.659
L395.361 257.879
L395.671 257.879
L395.986 259.098
L396.296 259.098
L396.601 260.521
L396.916 260.521
L397.221 261.741
L397.841 259.098
L398.156 259.098
L398.461 256.659
L398.771 257.879
L399.086 256.659
L399.391 256.659
L399.701 255.439
L400.011 255.439
L400.941 259.098
L401.566 259.098
L402.181 261.741
L402.491 261.741
L403.111 264.384
L403.421 264.384
L403.736 265.604
L404.351 265.604
L404.661 266.824
L405.281 266.824
L405.596 268.043
L405.901 268.043
L406.216 269.263
L407.761 269.263
L408.076 270.686
L409.936 270.686
L410.246 269.263
L410.551 270.686
L413.341 270.686
L413.651 271.906
L414.891 271.906
L415.201 273.126
L415.511 271.906
L415.821 273.126
L416.751 273.126
L417.061 274.549
L417.991 274.549
L418.306 275.768
L418.611 275.768
L418.921 276.988
L420.161 276.988
L420.476 278.208
L421.091 278.208
L421.706 270.686
L422.016 270.686
L422.326 273.126
L422.641 273.126
L422.951 270.686
L423.261 270.686
L423.881 273.126
L424.191 271.906
L424.816 274.549
L425.121 274.549
L425.431 271.906
L425.741 271.906
L426.361 274.549
L426.676 274.549
L426.976 276.988
L427.296 276.988
L427.601 278.208
L427.911 278.208
L428.221 279.428
L428.531 279.428
L428.841 280.851
L429.151 280.851
L429.461 282.071
L430.391 282.071
L430.701 280.851
L431.011 280.851
L431.316 282.071
L431.941 282.071
L432.251 280.851
L432.871 283.29
L433.186 282.071
L433.491 283.29
L434.726 283.29
L435.041 284.713
L435.661 284.713
L435.971 285.933
L436.901 285.933
L437.211 287.153
L438.141 287.153
L438.451 288.373
L439.381 288.373
L439.691 289.592
L440.626 289.592
L440.926 291.016
L441.861 291.016
L442.171 292.235
L442.791 292.235
L443.101 293.455
L443.411 293.455
L443.721 292.235
L445.281 292.235
L445.581 293.455
L445.891 293.455
L445.891 293.455" style="fill:none;stroke:#0000ff;stroke-linecap:square;stroke-width:2;"/>
   </g>
   <g id="line2d_2">
    <path clip-path="url(#p7ff5b81e1d)" d="
M72.031 134.682
L72.961 134.682
L73.2762 144.847
L74.201 144.847
L74.511 155.012
L75.4462 155.012
L75.751 165.176
L77.2958 165.176
L77.611 175.341
L80.401 175.341
L80.7162 185.506
L81.641 185.506
L81.951 175.341
L82.571 175.341
L83.191 155.012
L83.501 155.012
L84.121 134.682
L84.4465 134.682
L84.7462 124.518
L85.6813 124.518
L85.981 134.682
L87.221 134.682
L87.531 144.847
L88.461 144.847
L88.771 155.012
L89.701 155.012
L90.0058 165.176
L91.561 165.176
L91.871 175.341
L94.351 175.341
L94.6662 185.506
L95.901 185.506
L96.211 175.341
L96.521 175.341
L96.831 165.176
L97.1358 165.176
L97.761 144.847
L98.071 144.847
L98.381 134.682
L100.246 134.682
L100.556 144.847
L101.481 144.847
L101.791 155.012
L102.726 155.012
L103.026 165.176
L103.961 165.176
L104.266 175.341
L106.131 175.341
L106.446 185.506
L107.681 185.506
L107.986 175.341
L108.616 175.341
L109.231 155.012
L109.536 155.012
L110.161 134.682
L112.641 134.682
L112.956 144.847
L113.571 144.847
L113.876 155.012
L114.811 155.012
L115.121 165.176
L116.051 165.176
L116.366 175.341
L118.221 175.341
L118.531 185.506
L119.461 185.506
L119.771 175.341
L120.391 175.341
L120.696 165.176
L121.011 165.176
L121.631 144.847
L121.946 144.847
L122.251 134.682
L124.421 134.682
L124.731 144.847
L125.661 144.847
L125.976 155.012
L126.901 155.012
L127.211 165.176
L128.446 165.176
L128.761 175.341
L131.241 175.341
L131.551 185.506
L132.481 185.506
L132.791 175.341
L133.411 175.341
L134.031 155.012
L134.341 155.012
L134.651 144.847
L134.961 144.847
L135.276 134.682
L135.581 134.682
L135.891 124.518
L136.206 124.518
L136.511 134.682
L137.756 134.682
L138.061 144.847
L138.991 144.847
L139.306 155.012
L140.226 155.012
L140.536 165.176
L142.096 165.176
L142.396 175.341
L144.881 175.341
L145.196 185.506
L146.126 185.506
L146.431 175.341
L147.051 175.341
L147.366 165.176
L147.676 165.176
L148.291 144.847
L148.606 144.847
L148.911 134.682
L151.081 134.682
L151.391 144.847
L152.321 144.847
L152.631 155.012
L153.871 155.012
L154.181 165.176
L155.421 165.176
L155.736 175.341
L158.211 175.341
L158.521 185.506
L159.451 185.506
L159.766 175.341
L160.381 175.341
L160.691 165.176
L160.996 165.176
L161.626 144.847
L161.936 144.847
L162.241 134.682
L164.411 134.682
L164.721 144.847
L165.966 144.847
L166.271 155.012
L167.206 155.012
L167.516 165.176
L168.751 165.176
L169.066 175.341
L170.916 175.341
L171.231 185.506
L172.471 185.506
L172.781 175.341
L173.091 175.341
L173.396 165.176
L173.711 165.176
L174.021 155.012
L174.331 155.012
L174.951 134.682
L175.571 134.682
L175.886 124.518
L176.191 134.682
L177.431 134.682
L177.741 144.847
L178.676 144.847
L178.981 155.012
L179.601 155.012
L179.911 165.176
L181.151 165.176
L181.466 175.341
L183.636 175.341
L183.946 185.506
L187.351 185.506
L187.661 195.671
L193.241 195.671
L193.556 205.835
L202.231 205.835
L202.541 216
L214.011 216
L214.321 226.165
L237.881 226.165
L238.191 236.329
L238.506 226.165
L240.051 226.165
L240.361 236.329
L250.281 236.329
L250.596 226.165
L250.901 236.329
L251.211 226.165
L251.521 236.329
L251.831 226.165
L261.441 226.165
L261.751 216
L293.991 216
L294.301 205.835
L294.611 216
L295.541 216
L295.851 205.835
L296.471 205.835
L296.781 216
L297.091 205.835
L342.666 205.835
L342.976 195.671
L348.861 195.671
L349.176 205.835
L363.121 205.835
L363.431 216
L363.741 205.835
L364.056 216
L376.761 216
L377.076 226.165
L385.131 226.165
L385.441 236.329
L394.121 236.329
L394.431 246.494
L408.381 246.494
L408.691 236.329
L409.006 236.329
L409.311 226.165
L409.621 226.165
L410.246 205.835
L410.551 205.835
L411.171 185.506
L411.486 185.506
L411.791 175.341
L412.106 175.341
L412.406 165.176
L412.721 165.176
L413.026 155.012
L413.651 155.012
L413.971 144.847
L415.821 144.847
L416.131 155.012
L416.751 155.012
L417.371 175.341
L417.991 175.341
L418.306 185.506
L418.921 185.506
L419.231 195.671
L419.856 195.671
L420.161 185.506
L420.781 185.506
L421.401 165.176
L422.016 165.176
L422.326 155.012
L422.641 155.012
L422.951 144.847
L423.261 144.847
L423.576 134.682
L424.191 134.682
L424.506 144.847
L425.121 144.847
L425.431 155.012
L425.741 155.012
L426.067 165.176
L426.676 165.176
L426.976 175.341
L427.296 175.341
L427.601 185.506
L429.771 185.506
L430.081 175.341
L430.391 175.341
L430.701 165.176
L431.011 165.176
L431.316 155.012
L431.626 155.012
L431.941 144.847
L432.566 144.847
L432.871 134.682
L433.186 144.847
L434.421 144.847
L435.041 165.176
L435.351 165.176
L435.661 175.341
L436.276 175.341
L436.591 185.506
L437.211 185.506
L437.526 195.671
L437.831 195.671
L438.141 185.506
L438.766 185.506
L439.066 175.341
L439.381 175.341
L439.691 165.176
L440.001 165.176
L440.316 155.012
L440.926 155.012
L441.241 144.847
L441.556 144.847
L441.861 134.682
L442.171 134.682
L442.486 144.847
L443.411 144.847
L443.721 155.012
L444.031 155.012
L444.341 165.176
L444.656 165.176
L444.961 175.341
L445.581 175.341
L445.891 185.506
L445.891 185.506" style="fill:none;stroke:#ff0000;stroke-linecap:square;stroke-width:1.5;"/>
   </g>
   <g id="patch_3">
    <path d="
M72 43.2
L518.4 43.2" style="fill:none;stroke:#000000;stroke-linecap:square;stroke-linejoin:miter;"/>
   </g>
   <g id="patch_4">
    <path d="
M518.4 388.8
L518.4 43.2" style="fill:none;stroke:#000000;stroke-linecap:square;stroke-linejoin:miter;"/>
   </g>
   <g id="patch_5">
    <path d="
M72 388.8
L518.4 388.8" style="fill:none;stroke:#000000;stroke-linecap:square;stroke-linejoin:miter;"/>
   </g>
   <g id="patch_6">
    <path d="
M72 388.8
L72 43.2" style="fill:none;stroke:#000000;stroke-linecap:square;stroke-linejoin:miter;"/>
   </g>
   <g id="matplotlib.axis_1">
    <g id="xtick_1">
     <g id="line2d_3">
      <defs>
       <path d="
M0 0
L0 -4" id="m93b0483c22" style="stroke:#000000;stroke-width:0.5;"/>
      </defs>
      <g>
       <use style="stroke:#000000;stroke-width:0.5;" x="72.0" xlink:href="#m93b0483c22" y="388.8"/>
      </g>
     </g>
     <g id="line2d_4">
      <defs>
       <path d="
M0 0
L0 4" id="m741efc42ff" style="stroke:#000000;stroke-width:0.5;"/>
      </defs>
      <g>
       <use style="stroke:#000000;stroke-width:0.5;" x="72.0" xlink:href="#m741efc42ff" y="43.2"/>
      </g>
     </g>
     <g id="text_1">
      <!-- 00 -->
      <defs>
       <path d="
M31.7812 66.4062
Q24.1719 66.4062 20.3281 58.9062
Q16.5 51.4219 16.5 36.375
Q16.5 21.3906 20.3281 13.8906
Q24.1719 6.39062 31.7812 6.39062
Q39.4531 6.39062 43.2812 13.8906
Q47.125 21.3906 47.125 36.375
Q47.125 51.4219 43.2812 58.9062
Q39.4531 66.4062 31.7812 66.4062
M31.7812 74.2188
Q44.0469 74.2188 50.5156 64.5156
Q56.9844 54.8281 56.9844 36.375
Q56.9844 17.9688 50.5156 8.26562
Q44.0469 -1.42188 31.7812 -1.42188
Q19.5312 -1.42188 13.0625 8.26562
Q6.59375 17.9688 6.59375 36.375
Q6.59375 54.8281 13.0625 64.5156
Q19.5312 74.2188 31.7812 74.2188" id="BitstreamVeraSans-Roman-30"/>
      </defs>
      <g transform="translate(65.1590625 401.918125)scale(0.12 -0.12)">
       <use xlink:href="#BitstreamVeraSans-Roman-30"/>
       <use x="63.623046875" xlink:href="#BitstreamVeraSans-Roman-30"/>
      </g>
     </g>
    </g>
    <g id="xtick_2">
     <g id="line2d_5">
      <g>
       <use style="stroke:#000000;stroke-width:0.5;" x="90.6000000238" xlink:href="#m93b0483c22" y="388.8"/>
      </g>
     </g>
     <g id="line2d_6">
      <g>
       <use style="stroke:#000000;stroke-width:0.5;" x="90.6000000238" xlink:href="#m741efc42ff" y="43.2"/>
      </g>
     </g>
     <g id="text_2">
      <!-- 01 -->
      <defs>
       <path d="
M12.4062 8.29688
L28.5156 8.29688
L28.5156 63.9219
L10.9844 60.4062
L10.9844 69.3906
L28.4219 72.9062
L38.2812 72.9062
L38.2812 8.29688
L54.3906 8.29688
L54.3906 0
L12.4062 0
z
" id="BitstreamVeraSans-Roman-31"/>
      </defs>
      <g transform="translate(83.9146875238 401.918125)scale(0.12 -0.12)">
       <use xlink:href="#BitstreamVeraSans-Roman-30"/>
       <use x="63.623046875" xlink:href="#BitstreamVeraSans-Roman-31"/>
      </g>
     </g>
    </g>
    <g id="xtick_3">
     <g id="line2d_7">
      <g>
       <use style="stroke:#000000;stroke-width:0.5;" x="109.200000048" xlink:href="#m93b0483c22" y="388.8"/>
      </g>
     </g>
     <g id="line2d_8">
      <g>
       <use style="stroke:#000000;stroke-width:0.5;" x="109.200000048" xlink:href="#m741efc42ff" y="43.2"/>
      </g>
     </g>
     <g id="text_3">
      <!-- 02 -->
      <defs>
       <path d="
M19.1875 8.29688
L53.6094 8.29688
L53.6094 0
L7.32812 0
L7.32812 8.29688
Q12.9375 14.1094 22.625 23.8906
Q32.3281 33.6875 34.8125 36.5312
Q39.5469 41.8438 41.4219 45.5312
Q43.3125 49.2188 43.3125 52.7812
Q43.3125 58.5938 39.2344 62.25
Q35.1562 65.9219 28.6094 65.9219
Q23.9688 65.9219 18.8125 64.3125
Q13.6719 62.7031 7.8125 59.4219
L7.8125 69.3906
Q13.7656 71.7812 18.9375 73
Q24.125 74.2188 28.4219 74.2188
Q39.75 74.2188 46.4844 68.5469
Q53.2188 62.8906 53.2188 53.4219
Q53.2188 48.9219 51.5312 44.8906
Q49.8594 40.875 45.4062 35.4062
Q44.1875 33.9844 37.6406 27.2188
Q31.1094 20.4531 19.1875 8.29688" id="BitstreamVeraSans-Roman-32"/>
      </defs>
      <g transform="translate(102.561562548 401.918125)scale(0.12 -0.12)">
       <use xlink:href="#BitstreamVeraSans-Roman-30"/>
       <use x="63.623046875" xlink:href="#BitstreamVeraSans-Roman-32"/>
      </g>
     </g>
    </g>
    <g id="xtick_4">
     <g id="line2d_9">
      <g>
       <use style="stroke:#000000;stroke-width:0.5;" x="127.800000012" xlink:href="#m93b0483c22" y="388.8"/>
      </g>
     </g>
     <g id="line2d_10">
      <g>
       <use style="stroke:#000000;stroke-width:0.5;" x="127.800000012" xlink:href="#m741efc42ff" y="43.2"/>
      </g>
     </g>
     <g id="text_4">
      <!-- 03 -->
      <defs>
       <path d="
M40.5781 39.3125
Q47.6562 37.7969 51.625 33
Q55.6094 28.2188 55.6094 21.1875
Q55.6094 10.4062 48.1875 4.48438
Q40.7656 -1.42188 27.0938 -1.42188
Q22.5156 -1.42188 17.6562 -0.515625
Q12.7969 0.390625 7.625 2.20312
L7.625 11.7188
Q11.7188 9.32812 16.5938 8.10938
Q21.4844 6.89062 26.8125 6.89062
Q36.0781 6.89062 40.9375 10.5469
Q45.7969 14.2031 45.7969 21.1875
Q45.7969 27.6406 41.2812 31.2656
Q36.7656 34.9062 28.7188 34.9062
L20.2188 34.9062
L20.2188 43.0156
L29.1094 43.0156
Q36.375 43.0156 40.2344 45.9219
Q44.0938 48.8281 44.0938 54.2969
Q44.0938 59.9062 40.1094 62.9062
Q36.1406 65.9219 28.7188 65.9219
Q24.6562 65.9219 20.0156 65.0312
Q15.375 64.1562 9.8125 62.3125
L9.8125 71.0938
Q15.4375 72.6562 20.3438 73.4375
Q25.25 74.2188 29.5938 74.2188
Q40.8281 74.2188 47.3594 69.1094
Q53.9062 64.0156 53.9062 55.3281
Q53.9062 49.2656 50.4375 45.0938
Q46.9688 40.9219 40.5781 39.3125" id="BitstreamVeraSans-Roman-33"/>
      </defs>
      <g transform="translate(121.041562512 401.918125)scale(0.12 -0.12)">
       <use xlink:href="#BitstreamVeraSans-Roman-30"/>
       <use x="63.623046875" xlink:href="#BitstreamVeraSans-Roman-33"/>
      </g>
     </g>
    </g>
    <g id="xtick_5">
     <g id="line2d_11">
      <g>
       <use style="stroke:#000000;stroke-width:0.5;" x="146.399999976" xlink:href="#m93b0483c22" y="388.8"/>
      </g>
     </g>
     <g id="line2d_12">
      <g>
       <use style="stroke:#000000;stroke-width:0.5;" x="146.399999976" xlink:href="#m741efc42ff" y="43.2"/>
      </g>
     </g>
     <g id="text_5">
      <!-- 04 -->
      <defs>
       <path d="
M37.7969 64.3125
L12.8906 25.3906
L37.7969 25.3906
z

M35.2031 72.9062
L47.6094 72.9062
L47.6094 25.3906
L58.0156 25.3906
L58.0156 17.1875
L47.6094 17.1875
L47.6094 0
L37.7969 0
L37.7969 17.1875
L4.89062 17.1875
L4.89062 26.7031
z
" id="BitstreamVeraSans-Roman-34"/>
      </defs>
      <g transform="translate(139.497187476 401.918125)scale(0.12 -0.12)">
       <use xlink:href="#BitstreamVeraSans-Roman-30"/>
       <use x="63.623046875" xlink:href="#BitstreamVeraSans-Roman-34"/>
      </g>
     </g>
    </g>
    <g id="xtick_6">
     <g id="line2d_13">
      <g>
       <use style="stroke:#000000;stroke-width:0.5;" x="165.00000006" xlink:href="#m93b0483c22" y="388.8"/>
      </g>
     </g>
     <g id="line2d_14">
      <g>
       <use style="stroke:#000000;stroke-width:0.5;" x="165.00000006" xlink:href="#m741efc42ff" y="43.2"/>
      </g>
     </g>
     <g id="text_6">
      <!-- 05 -->
      <defs>
       <path d="
M10.7969 72.9062
L49.5156 72.9062
L49.5156 64.5938
L19.8281 64.5938
L19.8281 46.7344
Q21.9688 47.4688 24.1094 47.8281
Q26.2656 48.1875 28.4219 48.1875
Q40.625 48.1875 47.75 41.5
Q54.8906 34.8125 54.8906 23.3906
Q54.8906 11.625 47.5625 5.09375
Q40.2344 -1.42188 26.9062 -1.42188
Q22.3125 -1.42188 17.5469 -0.640625
Q12.7969 0.140625 7.71875 1.70312
L7.71875 11.625
Q12.1094 9.23438 16.7969 8.0625
Q21.4844 6.89062 26.7031 6.89062
Q35.1562 6.89062 40.0781 11.3281
Q45.0156 15.7656 45.0156 23.3906
Q45.0156 31 40.0781 35.4375
Q35.1562 39.8906 26.7031 39.8906
Q22.75 39.8906 18.8125 39.0156
Q14.8906 38.1406 10.7969 36.2812
z
" id="BitstreamVeraSans-Roman-35"/>
      </defs>
      <g transform="translate(158.28468756 401.918125)scale(0.12 -0.12)">
       <use xlink:href="#BitstreamVeraSans-Roman-30"/>
       <use x="63.623046875" xlink:href="#BitstreamVeraSans-Roman-35"/>
      </g>
     </g>
    </g>
    <g id="xtick_7">
     <g id="line2d_15">
      <g>
       <use style="stroke:#000000;stroke-width:0.5;" x="183.600000024" xlink:href="#m93b0483c22" y="388.8"/>
      </g>
     </g>
     <g id="line2d_16">
      <g>
       <use style="stroke:#000000;stroke-width:0.5;" x="183.600000024" xlink:href="#m741efc42ff" y="43.2"/>
      </g>
     </g>
     <g id="text_7">
      <!-- 06 -->
      <defs>
       <path d="
M33.0156 40.375
Q26.375 40.375 22.4844 35.8281
Q18.6094 31.2969 18.6094 23.3906
Q18.6094 15.5312 22.4844 10.9531
Q26.375 6.39062 33.0156 6.39062
Q39.6562 6.39062 43.5312 10.9531
Q47.4062 15.5312 47.4062 23.3906
Q47.4062 31.2969 43.5312 35.8281
Q39.6562 40.375 33.0156 40.375
M52.5938 71.2969
L52.5938 62.3125
Q48.875 64.0625 45.0938 64.9844
Q41.3125 65.9219 37.5938 65.9219
Q27.8281 65.9219 22.6719 59.3281
Q17.5312 52.7344 16.7969 39.4062
Q19.6719 43.6562 24.0156 45.9219
Q28.375 48.1875 33.5938 48.1875
Q44.5781 48.1875 50.9531 41.5156
Q57.3281 34.8594 57.3281 23.3906
Q57.3281 12.1562 50.6875 5.35938
Q44.0469 -1.42188 33.0156 -1.42188
Q20.3594 -1.42188 13.6719 8.26562
Q6.98438 17.9688 6.98438 36.375
Q6.98438 53.6562 15.1875 63.9375
Q23.3906 74.2188 37.2031 74.2188
Q40.9219 74.2188 44.7031 73.4844
Q48.4844 72.75 52.5938 71.2969" id="BitstreamVeraSans-Roman-36"/>
      </defs>
      <g transform="translate(176.738437524 401.918125)scale(0.12 -0.12)">
       <use xlink:href="#BitstreamVeraSans-Roman-30"/>
       <use x="63.623046875" xlink:href="#BitstreamVeraSans-Roman-36"/>
      </g>
     </g>
    </g>
    <g id="xtick_8">
     <g id="line2d_17">
      <g>
       <use style="stroke:#000000;stroke-width:0.5;" x="202.199999988" xlink:href="#m93b0483c22" y="388.8"/>
      </g>
     </g>
     <g id="line2d_18">
      <g>
       <use style="stroke:#000000;stroke-width:0.5;" x="202.199999988" xlink:href="#m741efc42ff" y="43.2"/>
      </g>
     </g>
     <g id="text_8">
      <!-- 07 -->
      <defs>
       <path d="
M8.20312 72.9062
L55.0781 72.9062
L55.0781 68.7031
L28.6094 0
L18.3125 0
L43.2188 64.5938
L8.20312 64.5938
z
" id="BitstreamVeraSans-Roman-37"/>
      </defs>
      <g transform="translate(195.473437488 401.918125)scale(0.12 -0.12)">
       <use xlink:href="#BitstreamVeraSans-Roman-30"/>
       <use x="63.623046875" xlink:href="#BitstreamVeraSans-Roman-37"/>
      </g>
     </g>
    </g>
    <g id="xtick_9">
     <g id="line2d_19">
      <g>
       <use style="stroke:#000000;stroke-width:0.5;" x="220.800000012" xlink:href="#m93b0483c22" y="388.8"/>
      </g>
     </g>
     <g id="line2d_20">
      <g>
       <use style="stroke:#000000;stroke-width:0.5;" x="220.800000012" xlink:href="#m741efc42ff" y="43.2"/>
      </g>
     </g>
     <g id="text_9">
      <!-- 08 -->
      <defs>
       <path d="
M31.7812 34.625
Q24.75 34.625 20.7188 30.8594
Q16.7031 27.0938 16.7031 20.5156
Q16.7031 13.9219 20.7188 10.1562
Q24.75 6.39062 31.7812 6.39062
Q38.8125 6.39062 42.8594 10.1719
Q46.9219 13.9688 46.9219 20.5156
Q46.9219 27.0938 42.8906 30.8594
Q38.875 34.625 31.7812 34.625
M21.9219 38.8125
Q15.5781 40.375 12.0312 44.7188
Q8.5 49.0781 8.5 55.3281
Q8.5 64.0625 14.7188 69.1406
Q20.9531 74.2188 31.7812 74.2188
Q42.6719 74.2188 48.875 69.1406
Q55.0781 64.0625 55.0781 55.3281
Q55.0781 49.0781 51.5312 44.7188
Q48 40.375 41.7031 38.8125
Q48.8281 37.1562 52.7969 32.3125
Q56.7812 27.4844 56.7812 20.5156
Q56.7812 9.90625 50.3125 4.23438
Q43.8438 -1.42188 31.7812 -1.42188
Q19.7344 -1.42188 13.25 4.23438
Q6.78125 9.90625 6.78125 20.5156
Q6.78125 27.4844 10.7812 32.3125
Q14.7969 37.1562 21.9219 38.8125
M18.3125 54.3906
Q18.3125 48.7344 21.8438 45.5625
Q25.3906 42.3906 31.7812 42.3906
Q38.1406 42.3906 41.7188 45.5625
Q45.3125 48.7344 45.3125 54.3906
Q45.3125 60.0625 41.7188 63.2344
Q38.1406 66.4062 31.7812 66.4062
Q25.3906 66.4062 21.8438 63.2344
Q18.3125 60.0625 18.3125 54.3906" id="BitstreamVeraSans-Roman-38"/>
      </defs>
      <g transform="translate(213.971250012 401.918125)scale(0.12 -0.12)">
       <use xlink:href="#BitstreamVeraSans-Roman-30"/>
       <use x="63.623046875" xlink:href="#BitstreamVeraSans-Roman-38"/>
      </g>
     </g>
    </g>
    <g id="xtick_10">
     <g id="line2d_21">
      <g>
       <use style="stroke:#000000;stroke-width:0.5;" x="239.400000036" xlink:href="#m93b0483c22" y="388.8"/>
      </g>
     </g>
     <g id="line2d_22">
      <g>
       <use style="stroke:#000000;stroke-width:0.5;" x="239.400000036" xlink:href="#m741efc42ff" y="43.2"/>
      </g>
     </g>
     <g id="text_10">
      <!-- 09 -->
      <defs>
       <path d="
M10.9844 1.51562
L10.9844 10.5
Q14.7031 8.73438 18.5 7.8125
Q22.3125 6.89062 25.9844 6.89062
Q35.75 6.89062 40.8906 13.4531
Q46.0469 20.0156 46.7812 33.4062
Q43.9531 29.2031 39.5938 26.9531
Q35.25 24.7031 29.9844 24.7031
Q19.0469 24.7031 12.6719 31.3125
Q6.29688 37.9375 6.29688 49.4219
Q6.29688 60.6406 12.9375 67.4219
Q19.5781 74.2188 30.6094 74.2188
Q43.2656 74.2188 49.9219 64.5156
Q56.5938 54.8281 56.5938 36.375
Q56.5938 19.1406 48.4062 8.85938
Q40.2344 -1.42188 26.4219 -1.42188
Q22.7031 -1.42188 18.8906 -0.6875
Q15.0938 0.046875 10.9844 1.51562
M30.6094 32.4219
Q37.25 32.4219 41.125 36.9531
Q45.0156 41.5 45.0156 49.4219
Q45.0156 57.2812 41.125 61.8438
Q37.25 66.4062 30.6094 66.4062
Q23.9688 66.4062 20.0938 61.8438
Q16.2188 57.2812 16.2188 49.4219
Q16.2188 41.5 20.0938 36.9531
Q23.9688 32.4219 30.6094 32.4219" id="BitstreamVeraSans-Roman-39"/>
      </defs>
      <g transform="translate(232.582500036 401.918125)scale(0.12 -0.12)">
       <use xlink:href="#BitstreamVeraSans-Roman-30"/>
       <use x="63.623046875" xlink:href="#BitstreamVeraSans-Roman-39"/>
      </g>
     </g>
    </g>
    <g id="xtick_11">
     <g id="line2d_23">
      <g>
       <use style="stroke:#000000;stroke-width:0.5;" x="258.0" xlink:href="#m93b0483c22" y="388.8"/>
      </g>
     </g>
     <g id="line2d_24">
      <g>
       <use style="stroke:#000000;stroke-width:0.5;" x="258.0" xlink:href="#m741efc42ff" y="43.2"/>
      </g>
     </g>
     <g id="text_11">
      <!-- 10 -->
      <g transform="translate(251.4225 401.918125)scale(0.12 -0.12)">
       <use xlink:href="#BitstreamVeraSans-Roman-31"/>
       <use x="63.623046875" xlink:href="#BitstreamVeraSans-Roman-30"/>
      </g>
     </g>
    </g>
    <g id="xtick_12">
     <g id="line2d_25">
      <g>
       <use style="stroke:#000000;stroke-width:0.5;" x="276.600000024" xlink:href="#m93b0483c22" y="388.8"/>
      </g>
     </g>
     <g id="line2d_26">
      <g>
       <use style="stroke:#000000;stroke-width:0.5;" x="276.600000024" xlink:href="#m741efc42ff" y="43.2"/>
      </g>
     </g>
     <g id="text_12">
      <!-- 11 -->
      <g transform="translate(270.178125024 401.918125)scale(0.12 -0.12)">
       <use xlink:href="#BitstreamVeraSans-Roman-31"/>
       <use x="63.623046875" xlink:href="#BitstreamVeraSans-Roman-31"/>
      </g>
     </g>
    </g>
    <g id="xtick_13">
     <g id="line2d_27">
      <g>
       <use style="stroke:#000000;stroke-width:0.5;" x="295.200000048" xlink:href="#m93b0483c22" y="388.8"/>
      </g>
     </g>
     <g id="line2d_28">
      <g>
       <use style="stroke:#000000;stroke-width:0.5;" x="295.200000048" xlink:href="#m741efc42ff" y="43.2"/>
      </g>
     </g>
     <g id="text_13">
      <!-- 12 -->
      <g transform="translate(288.825000048 401.918125)scale(0.12 -0.12)">
       <use xlink:href="#BitstreamVeraSans-Roman-31"/>
       <use x="63.623046875" xlink:href="#BitstreamVeraSans-Roman-32"/>
      </g>
     </g>
    </g>
    <g id="xtick_14">
     <g id="line2d_29">
      <g>
       <use style="stroke:#000000;stroke-width:0.5;" x="313.800000012" xlink:href="#m93b0483c22" y="388.8"/>
      </g>
     </g>
     <g id="line2d_30">
      <g>
       <use style="stroke:#000000;stroke-width:0.5;" x="313.800000012" xlink:href="#m741efc42ff" y="43.2"/>
      </g>
     </g>
     <g id="text_14">
      <!-- 13 -->
      <g transform="translate(307.305000012 401.918125)scale(0.12 -0.12)">
       <use xlink:href="#BitstreamVeraSans-Roman-31"/>
       <use x="63.623046875" xlink:href="#BitstreamVeraSans-Roman-33"/>
      </g>
     </g>
    </g>
    <g id="xtick_15">
     <g id="line2d_31">
      <g>
       <use style="stroke:#000000;stroke-width:0.5;" x="332.400000036" xlink:href="#m93b0483c22" y="388.8"/>
      </g>
     </g>
     <g id="line2d_32">
      <g>
       <use style="stroke:#000000;stroke-width:0.5;" x="332.400000036" xlink:href="#m741efc42ff" y="43.2"/>
      </g>
     </g>
     <g id="text_15">
      <!-- 14 -->
      <g transform="translate(325.760625036 401.918125)scale(0.12 -0.12)">
       <use xlink:href="#BitstreamVeraSans-Roman-31"/>
       <use x="63.623046875" xlink:href="#BitstreamVeraSans-Roman-34"/>
      </g>
     </g>
    </g>
    <g id="xtick_16">
     <g id="line2d_33">
      <g>
       <use style="stroke:#000000;stroke-width:0.5;" x="351.0" xlink:href="#m93b0483c22" y="388.8"/>
      </g>
     </g>
     <g id="line2d_34">
      <g>
       <use style="stroke:#000000;stroke-width:0.5;" x="351.0" xlink:href="#m741efc42ff" y="43.2"/>
      </g>
     </g>
     <g id="text_16">
      <!-- 15 -->
      <g transform="translate(344.548125 401.918125)scale(0.12 -0.12)">
       <use xlink:href="#BitstreamVeraSans-Roman-31"/>
       <use x="63.623046875" xlink:href="#BitstreamVeraSans-Roman-35"/>
      </g>
     </g>
    </g>
    <g id="xtick_17">
     <g id="line2d_35">
      <g>
       <use style="stroke:#000000;stroke-width:0.5;" x="369.600000024" xlink:href="#m93b0483c22" y="388.8"/>
      </g>
     </g>
     <g id="line2d_36">
      <g>
       <use style="stroke:#000000;stroke-width:0.5;" x="369.600000024" xlink:href="#m741efc42ff" y="43.2"/>
      </g>
     </g>
     <g id="text_17">
      <!-- 16 -->
      <g transform="translate(363.001875024 401.918125)scale(0.12 -0.12)">
       <use xlink:href="#BitstreamVeraSans-Roman-31"/>
       <use x="63.623046875" xlink:href="#BitstreamVeraSans-Roman-36"/>
      </g>
     </g>
    </g>
    <g id="xtick_18">
     <g id="line2d_37">
      <g>
       <use style="stroke:#000000;stroke-width:0.5;" x="388.200000048" xlink:href="#m93b0483c22" y="388.8"/>
      </g>
     </g>
     <g id="line2d_38">
      <g>
       <use style="stroke:#000000;stroke-width:0.5;" x="388.200000048" xlink:href="#m741efc42ff" y="43.2"/>
      </g>
     </g>
     <g id="text_18">
      <!-- 17 -->
      <g transform="translate(381.736875048 401.918125)scale(0.12 -0.12)">
       <use xlink:href="#BitstreamVeraSans-Roman-31"/>
       <use x="63.623046875" xlink:href="#BitstreamVeraSans-Roman-37"/>
      </g>
     </g>
    </g>
    <g id="xtick_19">
     <g id="line2d_39">
      <g>
       <use style="stroke:#000000;stroke-width:0.5;" x="406.800000012" xlink:href="#m93b0483c22" y="388.8"/>
      </g>
     </g>
     <g id="line2d_40">
      <g>
       <use style="stroke:#000000;stroke-width:0.5;" x="406.800000012" xlink:href="#m741efc42ff" y="43.2"/>
      </g>
     </g>
     <g id="text_19">
      <!-- 18 -->
      <g transform="translate(400.234687512 401.918125)scale(0.12 -0.12)">
       <use xlink:href="#BitstreamVeraSans-Roman-31"/>
       <use x="63.623046875" xlink:href="#BitstreamVeraSans-Roman-38"/>
      </g>
     </g>
    </g>
    <g id="xtick_20">
     <g id="line2d_41">
      <g>
       <use style="stroke:#000000;stroke-width:0.5;" x="425.399999976" xlink:href="#m93b0483c22" y="388.8"/>
      </g>
     </g>
     <g id="line2d_42">
      <g>
       <use style="stroke:#000000;stroke-width:0.5;" x="425.399999976" xlink:href="#m741efc42ff" y="43.2"/>
      </g>
     </g>
     <g id="text_20">
      <!-- 19 -->
      <g transform="translate(418.845937476 401.918125)scale(0.12 -0.12)">
       <use xlink:href="#BitstreamVeraSans-Roman-31"/>
       <use x="63.623046875" xlink:href="#BitstreamVeraSans-Roman-39"/>
      </g>
     </g>
    </g>
    <g id="xtick_21">
     <g id="line2d_43">
      <g>
       <use style="stroke:#000000;stroke-width:0.5;" x="444.00000006" xlink:href="#m93b0483c22" y="388.8"/>
      </g>
     </g>
     <g id="line2d_44">
      <g>
       <use style="stroke:#000000;stroke-width:0.5;" x="444.00000006" xlink:href="#m741efc42ff" y="43.2"/>
      </g>
     </g>
     <g id="text_21">
      <!-- 20 -->
      <g transform="translate(437.20312506 401.918125)scale(0.12 -0.12)">
       <use xlink:href="#BitstreamVeraSans-Roman-32"/>
       <use x="63.623046875" xlink:href="#BitstreamVeraSans-Roman-30"/>
      </g>
     </g>
    </g>
    <g id="xtick_22">
     <g id="line2d_45">
      <g>
       <use style="stroke:#000000;stroke-width:0.5;" x="462.600000024" xlink:href="#m93b0483c22" y="388.8"/>
      </g>
     </g>
     <g id="line2d_46">
      <g>
       <use style="stroke:#000000;stroke-width:0.5;" x="462.600000024" xlink:href="#m741efc42ff" y="43.2"/>
      </g>
     </g>
     <g id="text_22">
      <!-- 21 -->
      <g transform="translate(455.958750024 401.918125)scale(0.12 -0.12)">
       <use xlink:href="#BitstreamVeraSans-Roman-32"/>
       <use x="63.623046875" xlink:href="#BitstreamVeraSans-Roman-31"/>
      </g>
     </g>
    </g>
    <g id="xtick_23">
     <g id="line2d_47">
      <g>
       <use style="stroke:#000000;stroke-width:0.5;" x="481.199999988" xlink:href="#m93b0483c22" y="388.8"/>
      </g>
     </g>
     <g id="line2d_48">
      <g>
       <use style="stroke:#000000;stroke-width:0.5;" x="481.199999988" xlink:href="#m741efc42ff" y="43.2"/>
      </g>
     </g>
     <g id="text_23">
      <!-- 22 -->
      <g transform="translate(474.605624988 401.918125)scale(0.12 -0.12)">
       <use xlink:href="#BitstreamVeraSans-Roman-32"/>
       <use x="63.623046875" xlink:href="#BitstreamVeraSans-Roman-32"/>
      </g>
     </g>
    </g>
    <g id="xtick_24">
     <g id="line2d_49">
      <g>
       <use style="stroke:#000000;stroke-width:0.5;" x="499.800000012" xlink:href="#m93b0483c22" y="388.8"/>
      </g>
     </g>
     <g id="line2d_50">
      <g>
       <use style="stroke:#000000;stroke-width:0.5;" x="499.800000012" xlink:href="#m741efc42ff" y="43.2"/>
      </g>
     </g>
     <g id="text_24">
      <!-- 23 -->
      <g transform="translate(493.085625012 401.918125)scale(0.12 -0.12)">
       <use xlink:href="#BitstreamVeraSans-Roman-32"/>
       <use x="63.623046875" xlink:href="#BitstreamVeraSans-Roman-33"/>
      </g>
     </g>
    </g>
    <g id="xtick_25">
     <g id="line2d_51">
      <g>
       <use style="stroke:#000000;stroke-width:0.5;" x="518.400000036" xlink:href="#m93b0483c22" y="388.8"/>
      </g>
     </g>
     <g id="line2d_52">
      <g>
       <use style="stroke:#000000;stroke-width:0.5;" x="518.400000036" xlink:href="#m741efc42ff" y="43.2"/>
      </g>
     </g>
     <g id="text_25">
      <!-- 00 -->
      <g transform="translate(511.559062536 401.918125)scale(0.12 -0.12)">
       <use xlink:href="#BitstreamVeraSans-Roman-30"/>
       <use x="63.623046875" xlink:href="#BitstreamVeraSans-Roman-30"/>
      </g>
     </g>
    </g>
    <g id="xtick_26">
     <g id="line2d_53">
      <defs>
       <path d="
M0 0
L0 -2" id="m177f7580d0" style="stroke:#000000;stroke-width:0.5;"/>
      </defs>
      <g>
       <use style="stroke:#000000;stroke-width:0.5;" x="81.3000000119" xlink:href="#m177f7580d0" y="388.8"/>
      </g>
     </g>
     <g id="line2d_54">
      <defs>
       <path d="
M0 0
L0 2" id="m5284c7e2a0" style="stroke:#000000;stroke-width:0.5;"/>
      </defs>
      <g>
       <use style="stroke:#000000;stroke-width:0.5;" x="81.3000000119" xlink:href="#m5284c7e2a0" y="43.2"/>
      </g>
     </g>
    </g>
    <g id="xtick_27">
     <g id="line2d_55">
      <g>
       <use style="stroke:#000000;stroke-width:0.5;" x="99.9000000358" xlink:href="#m177f7580d0" y="388.8"/>
      </g>
     </g>
     <g id="line2d_56">
      <g>
       <use style="stroke:#000000;stroke-width:0.5;" x="99.9000000358" xlink:href="#m5284c7e2a0" y="43.2"/>
      </g>
     </g>
    </g>
    <g id="xtick_28">
     <g id="line2d_57">
      <g>
       <use style="stroke:#000000;stroke-width:0.5;" x="118.5" xlink:href="#m177f7580d0" y="388.8"/>
      </g>
     </g>
     <g id="line2d_58">
      <g>
       <use style="stroke:#000000;stroke-width:0.5;" x="118.5" xlink:href="#m5284c7e2a0" y="43.2"/>
      </g>
     </g>
    </g>
    <g id="xtick_29">
     <g id="line2d_59">
      <g>
       <use style="stroke:#000000;stroke-width:0.5;" x="137.100000024" xlink:href="#m177f7580d0" y="388.8"/>
      </g>
     </g>
     <g id="line2d_60">
      <g>
       <use style="stroke:#000000;stroke-width:0.5;" x="137.100000024" xlink:href="#m5284c7e2a0" y="43.2"/>
      </g>
     </g>
    </g>
    <g id="xtick_30">
     <g id="line2d_61">
      <g>
       <use style="stroke:#000000;stroke-width:0.5;" x="155.700000048" xlink:href="#m177f7580d0" y="388.8"/>
      </g>
     </g>
     <g id="line2d_62">
      <g>
       <use style="stroke:#000000;stroke-width:0.5;" x="155.700000048" xlink:href="#m5284c7e2a0" y="43.2"/>
      </g>
     </g>
    </g>
    <g id="xtick_31">
     <g id="line2d_63">
      <g>
       <use style="stroke:#000000;stroke-width:0.5;" x="174.300000012" xlink:href="#m177f7580d0" y="388.8"/>
      </g>
     </g>
     <g id="line2d_64">
      <g>
       <use style="stroke:#000000;stroke-width:0.5;" x="174.300000012" xlink:href="#m5284c7e2a0" y="43.2"/>
      </g>
     </g>
    </g>
    <g id="xtick_32">
     <g id="line2d_65">
      <g>
       <use style="stroke:#000000;stroke-width:0.5;" x="192.900000036" xlink:href="#m177f7580d0" y="388.8"/>
      </g>
     </g>
     <g id="line2d_66">
      <g>
       <use style="stroke:#000000;stroke-width:0.5;" x="192.900000036" xlink:href="#m5284c7e2a0" y="43.2"/>
      </g>
     </g>
    </g>
    <g id="xtick_33">
     <g id="line2d_67">
      <g>
       <use style="stroke:#000000;stroke-width:0.5;" x="211.5" xlink:href="#m177f7580d0" y="388.8"/>
      </g>
     </g>
     <g id="line2d_68">
      <g>
       <use style="stroke:#000000;stroke-width:0.5;" x="211.5" xlink:href="#m5284c7e2a0" y="43.2"/>
      </g>
     </g>
    </g>
    <g id="xtick_34">
     <g id="line2d_69">
      <g>
       <use style="stroke:#000000;stroke-width:0.5;" x="230.100000024" xlink:href="#m177f7580d0" y="388.8"/>
      </g>
     </g>
     <g id="line2d_70">
      <g>
       <use style="stroke:#000000;stroke-width:0.5;" x="230.100000024" xlink:href="#m5284c7e2a0" y="43.2"/>
      </g>
     </g>
    </g>
    <g id="xtick_35">
     <g id="line2d_71">
      <g>
       <use style="stroke:#000000;stroke-width:0.5;" x="248.700000048" xlink:href="#m177f7580d0" y="388.8"/>
      </g>
     </g>
     <g id="line2d_72">
      <g>
       <use style="stroke:#000000;stroke-width:0.5;" x="248.700000048" xlink:href="#m5284c7e2a0" y="43.2"/>
      </g>
     </g>
    </g>
    <g id="xtick_36">
     <g id="line2d_73">
      <g>
       <use style="stroke:#000000;stroke-width:0.5;" x="267.300000012" xlink:href="#m177f7580d0" y="388.8"/>
      </g>
     </g>
     <g id="line2d_74">
      <g>
       <use style="stroke:#000000;stroke-width:0.5;" x="267.300000012" xlink:href="#m5284c7e2a0" y="43.2"/>
      </g>
     </g>
    </g>
    <g id="xtick_37">
     <g id="line2d_75">
      <g>
       <use style="stroke:#000000;stroke-width:0.5;" x="285.899999976" xlink:href="#m177f7580d0" y="388.8"/>
      </g>
     </g>
     <g id="line2d_76">
      <g>
       <use style="stroke:#000000;stroke-width:0.5;" x="285.899999976" xlink:href="#m5284c7e2a0" y="43.2"/>
      </g>
     </g>
    </g>
    <g id="xtick_38">
     <g id="line2d_77">
      <g>
       <use style="stroke:#000000;stroke-width:0.5;" x="304.50000006" xlink:href="#m177f7580d0" y="388.8"/>
      </g>
     </g>
     <g id="line2d_78">
      <g>
       <use style="stroke:#000000;stroke-width:0.5;" x="304.50000006" xlink:href="#m5284c7e2a0" y="43.2"/>
      </g>
     </g>
    </g>
    <g id="xtick_39">
     <g id="line2d_79">
      <g>
       <use style="stroke:#000000;stroke-width:0.5;" x="323.100000024" xlink:href="#m177f7580d0" y="388.8"/>
      </g>
     </g>
     <g id="line2d_80">
      <g>
       <use style="stroke:#000000;stroke-width:0.5;" x="323.100000024" xlink:href="#m5284c7e2a0" y="43.2"/>
      </g>
     </g>
    </g>
    <g id="xtick_40">
     <g id="line2d_81">
      <g>
       <use style="stroke:#000000;stroke-width:0.5;" x="341.699999988" xlink:href="#m177f7580d0" y="388.8"/>
      </g>
     </g>
     <g id="line2d_82">
      <g>
       <use style="stroke:#000000;stroke-width:0.5;" x="341.699999988" xlink:href="#m5284c7e2a0" y="43.2"/>
      </g>
     </g>
    </g>
    <g id="xtick_41">
     <g id="line2d_83">
      <g>
       <use style="stroke:#000000;stroke-width:0.5;" x="360.300000012" xlink:href="#m177f7580d0" y="388.8"/>
      </g>
     </g>
     <g id="line2d_84">
      <g>
       <use style="stroke:#000000;stroke-width:0.5;" x="360.300000012" xlink:href="#m5284c7e2a0" y="43.2"/>
      </g>
     </g>
    </g>
    <g id="xtick_42">
     <g id="line2d_85">
      <g>
       <use style="stroke:#000000;stroke-width:0.5;" x="378.900000036" xlink:href="#m177f7580d0" y="388.8"/>
      </g>
     </g>
     <g id="line2d_86">
      <g>
       <use style="stroke:#000000;stroke-width:0.5;" x="378.900000036" xlink:href="#m5284c7e2a0" y="43.2"/>
      </g>
     </g>
    </g>
    <g id="xtick_43">
     <g id="line2d_87">
      <g>
       <use style="stroke:#000000;stroke-width:0.5;" x="397.5" xlink:href="#m177f7580d0" y="388.8"/>
      </g>
     </g>
     <g id="line2d_88">
      <g>
       <use style="stroke:#000000;stroke-width:0.5;" x="397.5" xlink:href="#m5284c7e2a0" y="43.2"/>
      </g>
     </g>
    </g>
    <g id="xtick_44">
     <g id="line2d_89">
      <g>
       <use style="stroke:#000000;stroke-width:0.5;" x="416.100000024" xlink:href="#m177f7580d0" y="388.8"/>
      </g>
     </g>
     <g id="line2d_90">
      <g>
       <use style="stroke:#000000;stroke-width:0.5;" x="416.100000024" xlink:href="#m5284c7e2a0" y="43.2"/>
      </g>
     </g>
    </g>
    <g id="xtick_45">
     <g id="line2d_91">
      <g>
       <use style="stroke:#000000;stroke-width:0.5;" x="434.700000048" xlink:href="#m177f7580d0" y="388.8"/>
      </g>
     </g>
     <g id="line2d_92">
      <g>
       <use style="stroke:#000000;stroke-width:0.5;" x="434.700000048" xlink:href="#m5284c7e2a0" y="43.2"/>
      </g>
     </g>
    </g>
    <g id="xtick_46">
     <g id="line2d_93">
      <g>
       <use style="stroke:#000000;stroke-width:0.5;" x="453.300000012" xlink:href="#m177f7580d0" y="388.8"/>
      </g>
     </g>
     <g id="line2d_94">
      <g>
       <use style="stroke:#000000;stroke-width:0.5;" x="453.300000012" xlink:href="#m5284c7e2a0" y="43.2"/>
      </g>
     </g>
    </g>
    <g id="xtick_47">
     <g id="line2d_95">
      <g>
       <use style="stroke:#000000;stroke-width:0.5;" x="471.900000036" xlink:href="#m177f7580d0" y="388.8"/>
      </g>
     </g>
     <g id="line2d_96">
      <g>
       <use style="stroke:#000000;stroke-width:0.5;" x="471.900000036" xlink:href="#m5284c7e2a0" y="43.2"/>
      </g>
     </g>
    </g>
    <g id="xtick_48">
     <g id="line2d_97">
      <g>
       <use style="stroke:#000000;stroke-width:0.5;" x="490.5" xlink:href="#m177f7580d0" y="388.8"/>
      </g>
     </g>
     <g id="line2d_98">
      <g>
       <use style="stroke:#000000;stroke-width:0.5;" x="490.5" xlink:href="#m5284c7e2a0" y="43.2"/>
      </g>
     </g>
    </g>
    <g id="xtick_49">
     <g id="line2d_99">
      <g>
       <use style="stroke:#000000;stroke-width:0.5;" x="509.100000024" xlink:href="#m177f7580d0" y="388.8"/>
      </g>
     </g>
     <g id="line2d_100">
      <g>
       <use style="stroke:#000000;stroke-width:0.5;" x="509.100000024" xlink:href="#m5284c7e2a0" y="43.2"/>
      </g>
     </g>
    </g>
   </g>
   <g id="matplotlib.axis_2">
    <g id="ytick_1">
     <g id="line2d_101">
      <defs>
       <path d="
M0 0
L4 0" id="m728421d6d4" style="stroke:#000000;stroke-width:0.5;"/>
      </defs>
      <g>
       <use style="stroke:#000000;stroke-width:0.5;" x="72.0" xlink:href="#m728421d6d4" y="388.8"/>
      </g>
     </g>
     <g id="line2d_102">
      <defs>
       <path d="
M0 0
L-4 0" id="mcb0005524f" style="stroke:#000000;stroke-width:0.5;"/>
      </defs>
      <g>
       <use style="stroke:#000000;stroke-width:0.5;" x="518.4" xlink:href="#mcb0005524f" y="388.8"/>
      </g>
     </g>
     <g id="text_26">
      <!-- −2 -->
      <defs>
       <path d="
M10.5938 35.5
L73.1875 35.5
L73.1875 27.2031
L10.5938 27.2031
z
" id="BitstreamVeraSans-Roman-2212"/>
      </defs>
      <g transform="translate(52.7825 392.11125)scale(0.12 -0.12)">
       <use xlink:href="#BitstreamVeraSans-Roman-2212"/>
       <use x="83.7890625" xlink:href="#BitstreamVeraSans-Roman-32"/>
      </g>
     </g>
    </g>
    <g id="ytick_2">
     <g id="line2d_103">
      <g>
       <use style="stroke:#000000;stroke-width:0.5;" x="72.0" xlink:href="#m728421d6d4" y="348.141176471"/>
      </g>
     </g>
     <g id="line2d_104">
      <g>
       <use style="stroke:#000000;stroke-width:0.5;" x="518.4" xlink:href="#mcb0005524f" y="348.141176471"/>
      </g>
     </g>
     <g id="text_27">
      <!-- 0 -->
      <g transform="translate(61.953125 351.452426471)scale(0.12 -0.12)">
       <use xlink:href="#BitstreamVeraSans-Roman-30"/>
      </g>
     </g>
    </g>
    <g id="ytick_3">
     <g id="line2d_105">
      <g>
       <use style="stroke:#000000;stroke-width:0.5;" x="72.0" xlink:href="#m728421d6d4" y="307.482352941"/>
      </g>
     </g>
     <g id="line2d_106">
      <g>
       <use style="stroke:#000000;stroke-width:0.5;" x="518.4" xlink:href="#mcb0005524f" y="307.482352941"/>
      </g>
     </g>
     <g id="text_28">
      <!-- 2 -->
      <g transform="translate(62.44625 310.793602941)scale(0.12 -0.12)">
       <use xlink:href="#BitstreamVeraSans-Roman-32"/>
      </g>
     </g>
    </g>
    <g id="ytick_4">
     <g id="line2d_107">
      <g>
       <use style="stroke:#000000;stroke-width:0.5;" x="72.0" xlink:href="#m728421d6d4" y="266.823529412"/>
      </g>
     </g>
     <g id="line2d_108">
      <g>
       <use style="stroke:#000000;stroke-width:0.5;" x="518.4" xlink:href="#mcb0005524f" y="266.823529412"/>
      </g>
     </g>
     <g id="text_29">
      <!-- 4 -->
      <g transform="translate(61.625 270.134779412)scale(0.12 -0.12)">
       <use xlink:href="#BitstreamVeraSans-Roman-34"/>
      </g>
     </g>
    </g>
    <g id="ytick_5">
     <g id="line2d_109">
      <g>
       <use style="stroke:#000000;stroke-width:0.5;" x="72.0" xlink:href="#m728421d6d4" y="226.164705882"/>
      </g>
     </g>
     <g id="line2d_110">
      <g>
       <use style="stroke:#000000;stroke-width:0.5;" x="518.4" xlink:href="#mcb0005524f" y="226.164705882"/>
      </g>
     </g>
     <g id="text_30">
      <!-- 6 -->
      <g transform="translate(61.95875 229.475955882)scale(0.12 -0.12)">
       <use xlink:href="#BitstreamVeraSans-Roman-36"/>
      </g>
     </g>
    </g>
    <g id="ytick_6">
     <g id="line2d_111">
      <g>
       <use style="stroke:#000000;stroke-width:0.5;" x="72.0" xlink:href="#m728421d6d4" y="185.505882353"/>
      </g>
     </g>
     <g id="line2d_112">
      <g>
       <use style="stroke:#000000;stroke-width:0.5;" x="518.4" xlink:href="#mcb0005524f" y="185.505882353"/>
      </g>
     </g>
     <g id="text_31">
      <!-- 8 -->
      <g transform="translate(62.0 188.817132353)scale(0.12 -0.12)">
       <use xlink:href="#BitstreamVeraSans-Roman-38"/>
      </g>
     </g>
    </g>
    <g id="ytick_7">
     <g id="line2d_113">
      <g>
       <use style="stroke:#000000;stroke-width:0.5;" x="72.0" xlink:href="#m728421d6d4" y="144.847058824"/>
      </g>
     </g>
     <g id="line2d_114">
      <g>
       <use style="stroke:#000000;stroke-width:0.5;" x="518.4" xlink:href="#mcb0005524f" y="144.847058824"/>
      </g>
     </g>
     <g id="text_32">
      <!-- 10 -->
      <g transform="translate(54.845 148.158308824)scale(0.12 -0.12)">
       <use xlink:href="#BitstreamVeraSans-Roman-31"/>
       <use x="63.623046875" xlink:href="#BitstreamVeraSans-Roman-30"/>
      </g>
     </g>
    </g>
    <g id="ytick_8">
     <g id="line2d_115">
      <g>
       <use style="stroke:#000000;stroke-width:0.5;" x="72.0" xlink:href="#m728421d6d4" y="104.188235294"/>
      </g>
     </g>
     <g id="line2d_116">
      <g>
       <use style="stroke:#000000;stroke-width:0.5;" x="518.4" xlink:href="#mcb0005524f" y="104.188235294"/>
      </g>
     </g>
     <g id="text_33">
      <!-- 12 -->
      <g transform="translate(55.25 107.499485294)scale(0.12 -0.12)">
       <use xlink:href="#BitstreamVeraSans-Roman-31"/>
       <use x="63.623046875" xlink:href="#BitstreamVeraSans-Roman-32"/>
      </g>
     </g>
    </g>
    <g id="ytick_9">
     <g id="line2d_117">
      <g>
       <use style="stroke:#000000;stroke-width:0.5;" x="72.0" xlink:href="#m728421d6d4" y="63.5294117647"/>
      </g>
     </g>
     <g id="line2d_118">
      <g>
       <use style="stroke:#000000;stroke-width:0.5;" x="518.4" xlink:href="#mcb0005524f" y="63.5294117647"/>
      </g>
     </g>
     <g id="text_34">
      <!-- 14 -->
      <g transform="translate(54.72125 66.8406617647)scale(0.12 -0.12)">
       <use xlink:href="#BitstreamVeraSans-Roman-31"/>
       <use x="63.623046875" xlink:href="#BitstreamVeraSans-Roman-34"/>
      </g>
     </g>
    </g>
   </g>
  </g>
 </g>
 <defs>
  <clipPath id="p7ff5b81e1d">
   <rect height="345.6" width="446.4" x="72.0" y="43.2"/>
  </clipPath>
 </defs>
</svg>
